<svg width="495" height="359" viewBox="0 0 495 359" fill="none" xmlns="http://www.w3.org/2000/svg">
<g clip-path="url(#clip0_71_5)">
<path fill-rule="evenodd" clip-rule="evenodd" d="M244.306 10.7757C239.376 16.7997 234.668 21.9577 233.843 22.2367C233.018 22.5157 224.243 23.9097 214.343 25.3357C152.634 34.2227 111.382 42.8117 82.5767 52.7717C65.6707 58.6177 56.3397 63.4337 49.5487 69.8217C44.5797 74.4947 43.6137 75.9817 43.1207 79.7137C42.4477 84.8107 44.6207 89.8297 48.3687 91.8357C53.1647 94.4027 55.9277 90.0177 51.8427 86.3217C50.6217 85.2167 49.8427 83.2417 49.8427 81.2517C49.8427 72.2417 74.0067 60.3737 111.759 50.8427C124.004 47.7517 160.527 40.2667 177.811 37.3067C192.128 34.8537 227.293 29.9617 227.708 30.3637C228.077 30.7227 208.766 54.4017 201.276 62.7747C199.039 65.2757 192.318 73.1717 186.339 80.3217C180.361 87.4717 172.516 96.7327 168.906 100.902C165.296 105.071 160.093 111.103 157.343 114.308C146.028 127.493 146.892 126.825 139.843 127.843C130.512 129.191 130.215 129.135 128.827 125.782C125.242 117.128 114.843 118.092 114.843 127.078C114.843 131.123 118.17 134.537 123.066 135.517C125.781 136.06 125.843 136.226 125.843 143.006C125.843 151.082 128.653 147.377 98.5727 178.959C53.0047 226.802 22.0147 252.518 5.34269 256.321C1.09169 257.291 0.296703 257.844 0.0387029 260.014C-0.557297 265.013 5.74667 264.417 17.8107 258.334C36.7197 248.799 63.8717 224.836 108.256 178.511C118.108 168.228 126.286 159.932 126.429 160.075C126.572 160.218 127.189 165.057 127.8 170.828C132.755 217.616 145.517 245.794 172.74 270.051C184.219 280.28 199.957 289.49 217.731 296.382C223.891 298.77 224.825 299.418 223.356 300.284C216.31 304.434 203.07 314.645 195.858 321.491C186.731 330.155 182.108 337.43 181.139 344.654C179.317 358.234 198.101 362.897 220.843 354.512C245.428 345.447 275.747 329.732 293.983 316.602L300.622 311.822H323.108C335.475 311.822 346.97 311.547 348.654 311.21C352.136 310.513 353.456 308.266 351.657 306.098C350.626 304.856 347.307 304.72 330.301 305.219C319.226 305.544 309.961 305.607 309.712 305.358C309.464 305.109 312.504 301.478 316.47 297.288C325.046 288.225 331.707 278.562 336.442 268.314L339.904 260.822H349.663C355.634 260.822 361.736 261.46 365.383 262.466C374.005 264.844 376.278 264.777 376.654 262.135C376.856 260.719 376.151 259.423 374.654 258.459C371.234 256.255 357.99 253.822 349.414 253.822H341.9L342.03 246.572C342.244 234.665 337.465 227.017 326.343 221.464C315.638 216.119 302.801 215.722 276.599 219.926C259.281 222.705 246.212 222.798 241.67 220.175C235.965 216.881 234.634 212.932 235.147 200.822C236.082 178.757 246.762 157.368 267.805 135.416C304.438 97.2007 359.376 72.1677 418.343 66.8207C439.727 64.8817 467.328 66.3227 477.843 69.9277C482.594 71.5567 486.595 74.4647 487.347 76.8357C488.185 79.4747 485.461 83.8467 481.266 86.5967C477.373 89.1487 476.911 91.2527 479.894 92.8487C482.535 94.2627 486.913 91.8287 491.14 86.5977C495.429 81.2927 495.507 75.1797 491.343 70.7967C483.796 62.8527 474.916 60.7927 445.343 60.1277C421.117 59.5827 409.99 60.5157 389.044 64.8507C368.924 69.0157 344.307 77.5807 325.343 87.0147C265.239 116.918 228.772 161.212 228.865 204.2C228.897 219.142 231.919 224.459 242.291 227.826C247.393 229.482 265.108 228.567 280.843 225.833C301.623 222.223 318.563 223.599 327.343 229.61C334.178 234.29 337.288 243.367 334.953 251.822C334.389 253.865 333.265 254.55 328.803 255.571C302.889 261.498 301.596 261.876 284.343 268.56C273.429 272.788 250.038 284.045 240.033 289.884L232.724 294.15L227.033 292.375C217.228 289.317 198.563 280.417 189.268 274.367C177.37 266.624 160.979 250.021 154.551 239.202C142.082 218.216 135.702 194.323 133.461 160.227L132.929 152.131L141.37 142.551C149.538 133.28 149.997 132.933 155.577 131.814C163.236 130.277 189.679 122.331 197.843 119.114C225.807 108.092 266.542 89.2237 285.843 78.3507C289.968 76.0277 298.068 71.5127 303.843 68.3187C325.784 56.1827 365.862 31.9417 369.232 28.7677C371.256 26.8607 370.87 24.1527 368.442 23.2217C367.621 22.9067 359.079 27.6027 348.67 34.0917C305.444 61.0407 265.049 82.8907 226.343 100.261C202.337 111.035 161.077 125.39 159.281 123.593C158.988 123.3 159.35 122.444 160.087 121.691C164.319 117.363 215.634 56.4277 231.911 36.4017C237.875 29.0637 239.33 27.8997 247.755 23.7197C252.857 21.1887 258.098 17.8137 259.402 16.2197C262.243 12.7437 262.57 7.32868 260.151 3.79468C255.949 -2.34532 254.531 -1.7203 244.306 10.7757ZM252.593 10.8817C251.139 12.7407 250.164 14.4757 250.426 14.7377C251.272 15.5837 256.097 10.0827 255.659 8.7707C255.401 7.9967 254.208 8.81869 252.593 10.8817ZM131.843 138.322C131.843 140.247 132.24 141.822 132.724 141.822C133.209 141.822 134.807 140.247 136.275 138.322L138.945 134.822H135.394C132.002 134.822 131.843 134.979 131.843 138.322ZM327.843 262.534C307.391 266.132 275.749 277.801 251.843 290.563C241.484 296.093 240.922 296.569 243.948 297.249C256.581 300.087 260.791 300.873 270.343 302.174C276.393 302.997 285.239 303.98 290.001 304.357L298.66 305.043L305.031 299.183C314.438 290.53 323.242 279.549 327.807 270.774C331.981 262.752 332.362 261.728 331.093 261.958C330.68 262.033 329.218 262.292 327.843 262.534ZM223.57 307.307C194.948 327.114 181.507 344.624 190.435 350.474C197.06 354.815 209.219 352.75 230.843 343.611C251.815 334.748 290.62 313.195 288.77 311.437C288.535 311.214 283.393 310.506 277.343 309.865C265.314 308.589 254.795 306.768 242.129 303.768C237.612 302.698 233.337 301.846 232.629 301.875C231.922 301.904 227.845 304.349 223.57 307.307Z" fill="#972E45"/>
</g>
<defs>
<clipPath id="clip0_71_5">
<rect width="495" height="359" fill="white"/>
</clipPath>
</defs>
</svg>
